<?xml version="1.0" encoding="utf-8"?>
<!-- Generator: Adobe Illustrator 27.9.0, SVG Export Plug-In . SVG Version: 6.00 Build 0)  -->
<svg version="1.1" xmlns="http://www.w3.org/2000/svg" xmlns:xlink="http://www.w3.org/1999/xlink" x="0px" y="0px"
	 viewBox="0 0 1000 1000" style="enable-background:new 0 0 1000 1000;" xml:space="preserve">
<style type="text/css">
	.st0{fill:#2C304E;}
	.st1{fill:#FFFFFF;}
	.st2{fill:url(#SVGID_1_);}
	.st3{fill:#6888BB;}
	.st4{fill:#E6E6E6;}
	.st5{fill:url(#SVGID_00000044141409842728552740000016658785043861499069_);}
	.st6{fill:url(#SVGID_00000170267083214218243240000007482403021372848827_);}
	.st7{fill:url(#SVGID_00000123434365229869959550000001335323528592736191_);}
	.st8{fill:url(#SVGID_00000039112842647391788350000009386470048742413738_);}
	.st9{fill:url(#SVGID_00000136395231473168593440000004463414906968112040_);}
	.st10{fill:url(#SVGID_00000018216381953356958330000013363434592314668674_);}
	.st11{fill:url(#SVGID_00000166666234029101166440000008727707833546182540_);}
	.st12{fill:url(#SVGID_00000034071387374059385980000008694188616065838993_);}
	.st13{fill:url(#SVGID_00000154417660022659692840000010010267366328963248_);}
	.st14{fill:url(#SVGID_00000165951835033909067540000017761755321441186481_);}
	.st15{fill:url(#SVGID_00000035490656565803172600000005965887526403692456_);}
	.st16{fill:url(#SVGID_00000090265826222091880850000004873464156662754695_);}
	.st17{fill:url(#SVGID_00000143608967257026107350000011536458387691830925_);}
	.st18{fill:url(#SVGID_00000152942336081511610360000004604625825379817351_);}
	.st19{fill:url(#SVGID_00000147192469343579181090000009798667946179546009_);}
	.st20{fill:url(#SVGID_00000031197335132243814770000000291762755485853321_);}
	.st21{fill:url(#SVGID_00000154412055178451954570000000850165344745495960_);}
	.st22{fill:url(#SVGID_00000137113351170289287810000012613664568780019124_);}
	.st23{fill:url(#SVGID_00000030445361315483678500000005140653773544643504_);}
	.st24{fill:url(#SVGID_00000032617646344569983250000012839341085257012156_);}
	.st25{fill:url(#SVGID_00000047018572872921314080000001797575468613875850_);}
	.st26{fill:url(#SVGID_00000043416064935340923350000016659724067241649584_);}
	.st27{fill:url(#SVGID_00000090988207369382866260000012709413910503736728_);}
	.st28{fill:url(#SVGID_00000083058696416577062810000012914486244154421928_);}
	.st29{fill:url(#SVGID_00000151513414761647933410000002439228595445723554_);}
	.st30{fill:url(#SVGID_00000007404254588307954430000006781569868392103325_);}
	.st31{fill:url(#SVGID_00000045615849701185003120000009733637663545952901_);}
	.st32{fill:url(#SVGID_00000065774361016452904920000011155544449418047156_);}
	.st33{fill:url(#SVGID_00000064347142150562891340000015968481968464535967_);}
</style>
<g id="Layer_2">
	<rect class="st0" width="1000" height="1000"/>
</g>
<g id="Layer_1">
	<g>
		
			<linearGradient id="SVGID_1_" gradientUnits="userSpaceOnUse" x1="469.0596" y1="1336.8789" x2="469.0596" y2="2190.6506" gradientTransform="matrix(0.7071 -0.7071 0.7071 0.7071 -1096.0603 -432.7097)">
			<stop  offset="0" style="stop-color:#88DAEC"/>
			<stop  offset="1" style="stop-color:#8AB5FA"/>
		</linearGradient>
		<path class="st2" d="M180.93,180.93c-16.7,16.7-8.35,177.02,162.83,348.2c223.78,223.78,324.88,288.59,359.71,295.22
			s81.17-39.71,81.17-39.71s46.34-46.34,39.71-81.17c-6.63-34.83-71.44-135.93-295.22-359.71
			C357.95,172.58,197.63,164.23,180.93,180.93z"/>
		<path class="st1" d="M750.24,697.68c2.2,2.22,5.11,3.45,8.23,3.45c3.11,0,6.04-1.22,8.24-3.42c2.2-2.2,3.4-5.11,3.4-8.23
			c0-3.14-1.21-6.06-3.4-8.23c-3.51-3.54-9.07-4.13-13.44-2l-36.79-36.72l-20.39-31.91l-9.36-9.37l0,0
			c12.08-12.08,12.9-31.38,1.76-44.32c-35.67-41.46-88.54-97.85-164.88-174.19c-73.63-73.63-75.02-66.6-147.8-18.31l-11.37,11.38
			c-48.29,72.78-55.32,74.17,18.31,147.8c76.34,76.34,132.73,129.21,174.19,164.88c12.95,11.14,32.25,10.31,44.32-1.76h0l9.95,9.84
			l30.74,19.4l37.27,37.28c-0.83,1.62-1.4,3.35-1.4,5.22c0,3.14,1.22,6.06,3.42,8.23c2.2,2.22,5.11,3.42,8.21,3.42
			c0.01,0,0.01,0,0.01,0c3.11,0,6.03-1.2,8.24-3.39c2.2-2.2,3.4-5.11,3.4-8.25c0-3.11-1.21-6.03-3.4-8.23
			c-2.21-2.2-5.13-3.42-8.24-3.42c0,0,0,0-0.01,0c-1.87,0.02-3.6,0.59-5.22,1.42l-37.86-37.77l-30.74-19.43l-9.34-9.34l17.67-17.67
			l46.52,46.52c-0.82,1.61-1.39,3.33-1.39,5.17c0,3.11,1.21,6.06,3.42,8.25c2.2,2.22,5.11,3.42,8.21,3.45c0.01,0,0.01,0,0.01,0
			c3.11,0,6.03-1.22,8.24-3.42v-0.03c2.2-2.2,3.4-5.11,3.4-8.23c0-3.11-1.21-6.03-3.4-8.23c-2.21-2.2-5.13-3.39-8.24-3.39
			c0,0,0,0-0.01,0c-1.86,0-3.59,0.56-5.2,1.38L629,658.98l12.47-12.46l99.46,99.45c-2.21,4.38-1.63,9.81,2.01,13.47
			c2.27,2.25,5.25,3.36,8.23,3.36s5.96-1.11,8.23-3.36l0.01-0.03c4.53-4.53,4.53-11.92-0.01-16.48c-3.63-3.59-9.05-4.19-13.42-2
			l-99.46-99.45L658.99,629l46.5,46.52c-0.83,1.62-1.39,3.35-1.39,5.24c0,3.11,1.21,6.03,3.4,8.23c2.21,2.2,5.13,3.42,8.24,3.42
			c0,0,0,0,0.01,0c3.1-0.03,6.02-1.22,8.21-3.45c2.21-2.17,3.42-5.11,3.42-8.2c0-3.14-1.22-6.06-3.42-8.23
			c-2.2-2.22-5.11-3.42-8.21-3.42c-0.01,0-0.01,0-0.01,0c-1.88,0-3.61,0.56-5.24,1.39l-46.5-46.52l17.71-17.71l8.85,8.78
			l20.39,31.91l37.27,37.28c-0.83,1.62-1.39,3.36-1.39,5.24C746.84,692.59,748.05,695.51,750.24,697.68z M689.46,753.93
			c1.21,0,2.35,0.5,3.21,1.36c0.86,0.83,1.32,1.97,1.32,3.17c0,1.22-0.46,2.36-1.32,3.2c-0.86,0.86-2,1.33-3.21,1.33
			c-1.21,0-2.33-0.47-3.21-1.33c-0.85-0.83-1.32-1.97-1.32-3.2c0-1.2,0.47-2.33,1.33-3.2C687.13,754.43,688.25,753.96,689.46,753.93
			z M680.73,711.24c1.21,0,2.35,0.47,3.21,1.33c0.86,0.83,1.32,1.97,1.32,3.17c0,1.22-0.47,2.36-1.32,3.2
			c-0.86,0.86-2,1.36-3.21,1.36c-1.21-0.03-2.33-0.5-3.2-1.36c-0.86-0.86-1.33-2-1.33-3.2c0-1.2,0.47-2.33,1.33-3.2
			C678.4,711.71,679.52,711.24,680.73,711.24z M751.19,746.65c1.15,0,2.31,0.44,3.2,1.31c1.75,1.78,1.76,4.67,0,6.42
			c-1.78,1.78-4.66,1.78-6.41,0c-1.76-1.75-1.76-4.64,0-6.39C748.85,747.09,750.02,746.65,751.19,746.65z M718.96,677.56
			c0.85,0.83,1.32,1.97,1.32,3.2c0,1.2-0.47,2.33-1.32,3.17l-0.01,0.03c-0.86,0.83-1.99,1.31-3.2,1.33c-1.21,0-2.35-0.5-3.21-1.36
			c-0.86-0.83-1.32-1.97-1.32-3.17c0-1.22,0.46-2.36,1.32-3.2c0.86-0.86,2-1.33,3.21-1.33
			C716.96,676.22,718.09,676.69,718.96,677.56z M761.68,686.28c0.86,0.83,1.32,1.97,1.32,3.2c0,1.2-0.46,2.33-1.32,3.17v0.03
			c-1.71,1.72-4.67,1.75-6.41-0.03c-0.86-0.83-1.32-1.97-1.32-3.17c0-1.22,0.46-2.36,1.32-3.22c0.86-0.86,2-1.31,3.2-1.31
			C759.68,684.95,760.82,685.39,761.68,686.28z"/>
		<g>
			<g>
				<path class="st3" d="M434.47,574.73l-21.93,21.93c3.39,3.26,6.82,6.58,10.14,9.75l21.88-21.88
					C441.21,581.27,437.93,578.11,434.47,574.73z"/>
				<path class="st3" d="M584.53,444.57l21.88-21.88c-3.18-3.32-6.49-6.75-9.75-10.14l-21.93,21.93
					C578.11,437.93,581.27,441.21,584.53,444.57z"/>
			</g>
			<path class="st4" d="M434.47,574.73c3.46,3.38,6.74,6.54,10.1,9.8l139.96-139.96c-3.26-3.36-6.42-6.64-9.8-10.1L434.47,574.73z"
				/>
		</g>
		
			<linearGradient id="SVGID_00000172399381866991965860000001261053232717976479_" gradientUnits="userSpaceOnUse" x1="-312.958" y1="-789.7426" x2="-312.958" y2="52.2804" gradientTransform="matrix(0.7071 0.7071 -0.7071 0.7071 464.7298 977.8596)">
			<stop  offset="0" style="stop-color:#FAE1B0"/>
			<stop  offset="1" style="stop-color:#F48CA8"/>
		</linearGradient>
		<path style="fill:url(#SVGID_00000172399381866991965860000001261053232717976479_);" d="M363.44,646.51l424.99-424.99
			c4.7-4.7,18.04,8.64,22.74,3.94c4.7-4.7,0.19-17.83-9.31-27.33c-9.5-9.5-22.62-14.01-27.33-9.31c-4.7,4.7,8.64,18.04,3.94,22.74
			L353.49,636.56c-22.24,22.24-109.04,39.26-145.18,75.4c-36.15,36.15-19.18,64.24-1.84,81.57s45.42,34.3,81.57-1.84
			C324.19,755.54,341.2,668.75,363.44,646.51z"/>
	</g>
</g>
</svg>
